<svg xmlns="http://www.w3.org/2000/svg" viewBox="0 0 64 64" width="64" height="64" fill="#5ed2fb">
	<path d="M32 2a30 30 0 1 0 30 30A30.034 30.034 0 0 0 32 2zm0 56a26 26 0 1 1 26-26 26.03 26.03 0 0 1-26 26z" />
	<path d="M38 15a5 5 0 1 0-5 5 5 5 0 0 0 5-5zm-5 2a2 2 0 1 1 2-2 2 2 0 0 1-2 2zM20 26h24a2 2 0 0 0 0-4H20a2 2 0 0 0 0 4zm2 10h20a2 2 0 0 0 0-4H22a2 2 0 0 0 0 4zm6 10h8a2 2 0 0 0 0-4h-8a2 2 0 0 0 0 4z" />
	<path d="M48.49 36.91a1 1 0 0 0-1.41.09 2.965 2.965 0 0 1-4.28 0 1 1 0 1 0-1.5 1.32 4.948 4.948 0 0 0 7.28 0 1 1 0 0 0-.09-1.41zM20.5 37a2.965 2.965 0 0 1-4.28 0 1 1 0 0 0-1.5 1.32 4.948 4.948 0 0 0 7.28 0 1 1 0 1 0-1.5-1.32z" />
</svg>
